<mxfile host="app.diagrams.net" modified="2020-08-02T03:44:43.449Z" agent="5.0 (X11)" etag="m0kFKoAJFK5pVbpqf4VX" version="13.5.8" type="github">
  <diagram id="C5RBs43oDa-KdzZeNtuy" name="Page-1">
    <mxGraphModel dx="1422" dy="766" grid="1" gridSize="10" guides="1" tooltips="1" connect="1" arrows="1" fold="1" page="1" pageScale="1" pageWidth="827" pageHeight="1169" math="0" shadow="0">
      <root>
        <mxCell id="WIyWlLk6GJQsqaUBKTNV-0" />
        <mxCell id="WIyWlLk6GJQsqaUBKTNV-1" parent="WIyWlLk6GJQsqaUBKTNV-0" />
        <mxCell id="Qgol551jgnQLZ_fPhxWo-4" value="" style="edgeStyle=orthogonalEdgeStyle;rounded=0;orthogonalLoop=1;jettySize=auto;html=1;" edge="1" parent="WIyWlLk6GJQsqaUBKTNV-1" source="Qgol551jgnQLZ_fPhxWo-2" target="Qgol551jgnQLZ_fPhxWo-3">
          <mxGeometry relative="1" as="geometry" />
        </mxCell>
        <mxCell id="Qgol551jgnQLZ_fPhxWo-2" value="Main" style="rounded=1;whiteSpace=wrap;html=1;" vertex="1" parent="WIyWlLk6GJQsqaUBKTNV-1">
          <mxGeometry x="50" y="40" width="120" height="60" as="geometry" />
        </mxCell>
        <mxCell id="Qgol551jgnQLZ_fPhxWo-6" value="" style="edgeStyle=orthogonalEdgeStyle;rounded=0;orthogonalLoop=1;jettySize=auto;html=1;" edge="1" parent="WIyWlLk6GJQsqaUBKTNV-1" source="Qgol551jgnQLZ_fPhxWo-3" target="Qgol551jgnQLZ_fPhxWo-5">
          <mxGeometry relative="1" as="geometry" />
        </mxCell>
        <mxCell id="Qgol551jgnQLZ_fPhxWo-3" value="Create EventLoop for winit" style="whiteSpace=wrap;html=1;rounded=1;" vertex="1" parent="WIyWlLk6GJQsqaUBKTNV-1">
          <mxGeometry x="250" y="40" width="120" height="60" as="geometry" />
        </mxCell>
        <mxCell id="Qgol551jgnQLZ_fPhxWo-8" value="" style="edgeStyle=orthogonalEdgeStyle;rounded=0;orthogonalLoop=1;jettySize=auto;html=1;" edge="1" parent="WIyWlLk6GJQsqaUBKTNV-1" source="Qgol551jgnQLZ_fPhxWo-5" target="Qgol551jgnQLZ_fPhxWo-7">
          <mxGeometry relative="1" as="geometry" />
        </mxCell>
        <mxCell id="Qgol551jgnQLZ_fPhxWo-5" value="Create Window for winit" style="whiteSpace=wrap;html=1;rounded=1;" vertex="1" parent="WIyWlLk6GJQsqaUBKTNV-1">
          <mxGeometry x="450" y="40" width="120" height="60" as="geometry" />
        </mxCell>
        <mxCell id="Qgol551jgnQLZ_fPhxWo-10" value="" style="edgeStyle=orthogonalEdgeStyle;rounded=0;orthogonalLoop=1;jettySize=auto;html=1;" edge="1" parent="WIyWlLk6GJQsqaUBKTNV-1" source="Qgol551jgnQLZ_fPhxWo-7" target="Qgol551jgnQLZ_fPhxWo-9">
          <mxGeometry relative="1" as="geometry">
            <Array as="points">
              <mxPoint x="710" y="140" />
              <mxPoint x="420" y="140" />
            </Array>
          </mxGeometry>
        </mxCell>
        <mxCell id="Qgol551jgnQLZ_fPhxWo-7" value="Start init of vulkan " style="whiteSpace=wrap;html=1;rounded=1;" vertex="1" parent="WIyWlLk6GJQsqaUBKTNV-1">
          <mxGeometry x="650" y="40" width="120" height="60" as="geometry" />
        </mxCell>
        <mxCell id="Qgol551jgnQLZ_fPhxWo-13" value="" style="edgeStyle=orthogonalEdgeStyle;rounded=0;orthogonalLoop=1;jettySize=auto;html=1;" edge="1" parent="WIyWlLk6GJQsqaUBKTNV-1" source="Qgol551jgnQLZ_fPhxWo-9" target="Qgol551jgnQLZ_fPhxWo-12">
          <mxGeometry relative="1" as="geometry" />
        </mxCell>
        <mxCell id="Qgol551jgnQLZ_fPhxWo-9" value="&lt;div&gt;Init Entry&lt;/div&gt;" style="whiteSpace=wrap;html=1;rounded=1;" vertex="1" parent="WIyWlLk6GJQsqaUBKTNV-1">
          <mxGeometry x="360" y="170" width="120" height="60" as="geometry" />
        </mxCell>
        <mxCell id="Qgol551jgnQLZ_fPhxWo-15" value="" style="edgeStyle=orthogonalEdgeStyle;rounded=0;orthogonalLoop=1;jettySize=auto;html=1;" edge="1" parent="WIyWlLk6GJQsqaUBKTNV-1" source="Qgol551jgnQLZ_fPhxWo-12" target="Qgol551jgnQLZ_fPhxWo-14">
          <mxGeometry relative="1" as="geometry" />
        </mxCell>
        <mxCell id="Qgol551jgnQLZ_fPhxWo-12" value="&lt;div&gt;Init Instance&lt;/div&gt;&lt;div&gt;Req: Entry&lt;br&gt;&lt;/div&gt;" style="whiteSpace=wrap;html=1;rounded=1;" vertex="1" parent="WIyWlLk6GJQsqaUBKTNV-1">
          <mxGeometry x="360" y="250" width="120" height="60" as="geometry" />
        </mxCell>
        <mxCell id="Qgol551jgnQLZ_fPhxWo-17" value="" style="edgeStyle=orthogonalEdgeStyle;rounded=0;orthogonalLoop=1;jettySize=auto;html=1;" edge="1" parent="WIyWlLk6GJQsqaUBKTNV-1" source="Qgol551jgnQLZ_fPhxWo-14" target="Qgol551jgnQLZ_fPhxWo-16">
          <mxGeometry relative="1" as="geometry" />
        </mxCell>
        <mxCell id="Qgol551jgnQLZ_fPhxWo-14" value="&lt;div&gt;Setup Vulkan Validation Layers&lt;/div&gt;&lt;div&gt;Req: Entry &amp;amp; Instance&lt;br&gt;&lt;/div&gt;" style="whiteSpace=wrap;html=1;rounded=1;" vertex="1" parent="WIyWlLk6GJQsqaUBKTNV-1">
          <mxGeometry x="360" y="330" width="120" height="60" as="geometry" />
        </mxCell>
        <mxCell id="Qgol551jgnQLZ_fPhxWo-19" value="" style="edgeStyle=orthogonalEdgeStyle;rounded=0;orthogonalLoop=1;jettySize=auto;html=1;" edge="1" parent="WIyWlLk6GJQsqaUBKTNV-1" source="Qgol551jgnQLZ_fPhxWo-16" target="Qgol551jgnQLZ_fPhxWo-18">
          <mxGeometry relative="1" as="geometry" />
        </mxCell>
        <mxCell id="Qgol551jgnQLZ_fPhxWo-16" value="&lt;div&gt;Create Surface&lt;/div&gt;&lt;div&gt;Req: Entry, Instance, Window&lt;br&gt;&lt;/div&gt;" style="whiteSpace=wrap;html=1;rounded=1;" vertex="1" parent="WIyWlLk6GJQsqaUBKTNV-1">
          <mxGeometry x="360" y="410" width="120" height="60" as="geometry" />
        </mxCell>
        <mxCell id="Qgol551jgnQLZ_fPhxWo-21" value="" style="edgeStyle=orthogonalEdgeStyle;rounded=0;orthogonalLoop=1;jettySize=auto;html=1;" edge="1" parent="WIyWlLk6GJQsqaUBKTNV-1" source="Qgol551jgnQLZ_fPhxWo-18" target="Qgol551jgnQLZ_fPhxWo-20">
          <mxGeometry relative="1" as="geometry" />
        </mxCell>
        <mxCell id="Qgol551jgnQLZ_fPhxWo-18" value="&lt;div&gt;Setup Physical Device&lt;/div&gt;&lt;div&gt;Req: Instance&lt;br&gt;&lt;/div&gt;" style="whiteSpace=wrap;html=1;rounded=1;" vertex="1" parent="WIyWlLk6GJQsqaUBKTNV-1">
          <mxGeometry x="360" y="490" width="120" height="60" as="geometry" />
        </mxCell>
        <mxCell id="Qgol551jgnQLZ_fPhxWo-20" value="&lt;div&gt;Setup Logical Device and get Queue Family&lt;br&gt;&lt;/div&gt;&lt;div&gt;Req: Physical Device &amp;amp; Instance&lt;br&gt;&lt;/div&gt;" style="whiteSpace=wrap;html=1;rounded=1;" vertex="1" parent="WIyWlLk6GJQsqaUBKTNV-1">
          <mxGeometry x="355" y="570" width="130" height="80" as="geometry" />
        </mxCell>
      </root>
    </mxGraphModel>
  </diagram>
</mxfile>
